<?xml version="1.0" encoding="utf-8"?>
<!-- Generator: Adobe Illustrator 23.0.1, SVG Export Plug-In . SVG Version: 6.00 Build 0)  -->
<svg version="1.1" id="Layer_1" xmlns="http://www.w3.org/2000/svg" xmlns:xlink="http://www.w3.org/1999/xlink" x="0px" y="0px"
	 viewBox="0 0 586.6 586.6" style="enable-background:new 0 0 586.6 586.6;" xml:space="preserve">
<style type="text/css">
	.st0{clip-path:url(#SVGID_2_);fill:#DAECF2;}
	.st1{clip-path:url(#SVGID_4_);}
	.st2{fill:#FFAC9D;}
	.st3{fill:#E08880;}
	.st4{fill:#FFEDEE;}
	.st5{opacity:0.1;fill:#352836;enable-background:new    ;}
	.st6{fill:#5996BF;}
	.st7{fill:#6CBBE6;}
	.st8{fill:#853F38;}
	.st9{fill:#FFFFFF;}
	.st10{fill:#352836;}
</style>
<g>
	<g>
		<defs>
			<circle id="SVGID_1_" cx="293.3" cy="293.4" r="282.5"/>
		</defs>
		<clipPath id="SVGID_2_">
			<use xlink:href="#SVGID_1_"  style="overflow:visible;"/>
		</clipPath>
		<circle class="st0" cx="292.8" cy="293.9" r="282.5"/>
	</g>
	<g>
		<defs>
			<circle id="SVGID_3_" cx="293.3" cy="293.4" r="282.5"/>
		</defs>
		<clipPath id="SVGID_4_">
			<use xlink:href="#SVGID_3_"  style="overflow:visible;"/>
		</clipPath>
		<g class="st1">
			<g>
				<g>
					<path class="st2" d="M348.2,417.8c-23-12.6-16.8-73.3-16.8-73.3l-34.5,2.2v-2.2l-3.7,1.1l-3.7-1.1v2.2l-34.5-2.2
						c0,0,6.3,60.7-16.8,73.3c-23,12.6-159.2,18.8-144.5,159.2h195.8h7.4h195.8C507.4,436.6,371.3,430.3,348.2,417.8z"/>
					<path class="st3" d="M250.3,402.1c27.6-4.1,55.1-8.4,82.6-12.7c-3.9-20.9-1.4-44.9-1.4-44.9l-34.5,2.2v-2.2l-3.7,1.1l-3.7-1.1
						v2.2l-34.5-2.2C255.1,344.5,258.7,379.8,250.3,402.1z"/>
				</g>
				<g>
					<g>
						<path class="st4" d="M377.2,423.6c-12.4,32.3-45.3,55.3-83.9,55.3s-71.6-23.1-83.9-55.3c-47.4,13-130.9,40.9-119.1,153.4
							h199.3h7.5h199.3C508.1,464.5,424.7,436.6,377.2,423.6z"/>
						<path class="st5" d="M463.9,467.6c-50.9,32.9-112.3,45.8-169.4,64c-53.5,17-107.7,31.8-162.2,45.3h364
							C501.8,524.4,486.6,490.4,463.9,467.6z"/>
					</g>
					<g>
						<g>
							<path class="st6" d="M385.3,425.8v151.1h111.1C507.5,470.6,433.5,439.9,385.3,425.8z"/>
							<path class="st6" d="M200.6,426.1c-48.2,14.1-121.4,45.1-110.3,150.9h110.3L200.6,426.1L200.6,426.1z"/>
						</g>
						<path class="st7" d="M201.9,426.1v150.9c0,0-55.7-94.9-53-127.5C151.7,416.8,196.5,414.9,201.9,426.1z"/>
						<path class="st7" d="M382.4,426.1v150.9c0,0,55.7-94.9,53-127.5C432.7,416.8,387.9,414.9,382.4,426.1z"/>
					</g>
				</g>
			</g>
			<g>
				<g>
					<path class="st3" d="M225.8,255.6c-6.8-21.1-22.8-16.2-24.3-15.7c-1.6,0.2-18.2,2.6-15.3,24.6c2.9,22.1,15.7,34,27.7,30.5
						C226.1,293,232.6,276.7,225.8,255.6z"/>
					<path class="st3" d="M361.1,255.6c6.8-21.1,22.8-16.2,24.3-15.7c1.6,0.2,18.2,2.6,15.3,24.6c-2.9,22.1-15.7,34-27.7,30.5
						C360.7,293,354.3,276.7,361.1,255.6z"/>
					<path class="st2" d="M209.3,223.7c8.4-92.3,78.5-87.1,85.1-86.4c6.6-0.7,76.7-5.9,85.1,86.4c8.5,92.9-32.8,153.5-85.1,150.2
						C242.2,377.2,200.9,316.5,209.3,223.7z"/>
				</g>
				<g>
					<g>
						<path class="st8" d="M306.5,234.5c0.7,4.3,1.4,8.6,2,12.9c0.6,4.3,1.2,8.6,1.7,12.9c0.5,4.3,1,8.6,1.5,12.9
							c0.5,4.3,0.9,8.6,1.3,13l0,0.4l-0.3,0.2c-2.7,1.8-5.4,3.5-8.2,5.3c-2.8,1.7-5.5,3.5-8.3,5.2c2.6-2,5.2-3.9,7.8-5.9
							c2.6-1.9,5.2-3.8,7.9-5.7l-0.3,0.6c-0.6-4.3-1.1-8.6-1.6-12.9c-0.5-4.3-1-8.6-1.4-12.9c-0.4-4.3-0.8-8.6-1.2-13
							C307,243.2,306.7,238.8,306.5,234.5z"/>
					</g>
					<path class="st9" d="M330.1,313.8c-16.7,16.2-44.9,15.3-66.3,0.9"/>
					<g>
						<path class="st10" d="M360.5,227.6c-3.2-2.8-6.6-5.3-10.3-7.3c-1.8-1-3.7-1.9-5.6-2.5c-1.9-0.7-3.9-1.1-5.9-1.3
							c-4-0.4-8,0.4-11.8,2.1c-3.7,1.8-7.1,4.3-10.3,7.1c2.4-3.6,5.5-6.7,9.4-9c1.9-1.1,4-2,6.2-2.5c2.2-0.5,4.5-0.6,6.8-0.5
							c4.5,0.4,8.8,2.2,12.4,4.6C354.9,221,358.1,224,360.5,227.6z"/>
					</g>
					<g>
						<path class="st10" d="M273.2,227.6c-3.2-2.8-6.7-5.3-10.3-7.3c-1.8-1-3.7-1.9-5.6-2.5c-1.9-0.7-3.9-1.1-5.9-1.3
							c-4-0.4-8,0.4-11.8,2.1c-3.7,1.8-7.1,4.3-10.3,7.1c2.4-3.6,5.5-6.7,9.4-9c1.9-1.1,4-2,6.2-2.5c2.2-0.5,4.5-0.6,6.8-0.5
							c4.5,0.4,8.8,2.2,12.4,4.6C267.7,221,270.8,224,273.2,227.6z"/>
					</g>
					<g>
						<path class="st10" d="M270.4,261.1c-0.3-2-0.8-4-1.6-5.8c-0.7-1.9-1.7-3.6-2.9-5.2c-1.2-1.5-2.7-2.8-4.5-3.7
							c-1.7-0.9-3.7-1.3-5.6-1.3c-1,0-2,0-2.9,0.2c-1,0.2-1.9,0.4-2.8,0.8c-1.8,0.8-3.3,2-4.4,3.6c-1.1,1.6-1.9,3.5-2.4,5.4
							c-0.5,1.9-0.7,3.9-0.7,6c-0.4-4,0.1-8.3,2.3-11.9c1.1-1.8,2.8-3.2,4.7-4.1c1-0.4,2-0.7,3-0.9c1-0.1,2.1-0.2,3.1-0.2
							c2.1,0,4.2,0.5,6.1,1.5c1.9,1,3.5,2.4,4.7,4.1C269.1,253,270.2,257.1,270.4,261.1z"/>
					</g>
					<g>
						<path class="st10" d="M348.9,259.8c-0.3-2-0.8-4-1.6-5.8c-0.7-1.9-1.7-3.6-2.9-5.2c-1.2-1.5-2.7-2.8-4.5-3.7
							c-1.7-0.9-3.7-1.3-5.6-1.3c-1,0-2,0-2.9,0.2c-1,0.2-1.9,0.4-2.8,0.8c-1.8,0.8-3.3,2-4.4,3.6c-1.1,1.6-1.9,3.5-2.4,5.4
							c-0.5,1.9-0.7,3.9-0.7,6c-0.4-4,0.1-8.3,2.3-11.9c1.1-1.8,2.8-3.2,4.7-4.1c1-0.4,2-0.7,3-0.9c1-0.1,2.1-0.2,3.1-0.2
							c2.1,0,4.2,0.5,6.1,1.5c1.9,1,3.5,2.4,4.7,4.1C347.5,251.7,348.7,255.8,348.9,259.8z"/>
					</g>
				</g>
			</g>
		</g>
	</g>
</g>
</svg>
