<?xml version="1.0" encoding="utf-8"?>
<!-- Generator: Adobe Illustrator 23.0.1, SVG Export Plug-In . SVG Version: 6.00 Build 0)  -->
<svg version="1.1" id="Layer_1" xmlns="http://www.w3.org/2000/svg" xmlns:xlink="http://www.w3.org/1999/xlink" x="0px" y="0px"
	 viewBox="0 0 442 444" style="enable-background:new 0 0 442 444;" xml:space="preserve">
<style type="text/css">
	.st0{fill:#FFFFFF;}
	.st1{fill:#222221;}
</style>
<path class="st0" d="M10.8,229.9c1.3,10.8,2,21.6,4,32.3c7.1,39.2,24.2,73.7,50.9,103.2c32,35.4,71.5,58.1,118.5,67.4
	c7.9,1.6,16,2.1,24,3.2c1.2,0.2,2.4,0.5,3.6,0.7c-67,0-134,0-200.9,0C10.8,367.8,10.8,298.9,10.8,229.9z"/>
<g>
	<g>
		<g>
			<path class="st1" d="M7.8,214.9c1.3-11,2.1-22.2,4.1-33.1c7.2-39.5,24.8-74.1,51.8-103.7c31.9-34.8,71-57.1,117.4-66.2
				C277.1-6.9,375,43.2,416,131.7C466.2,240,419.7,366.7,311.5,417c-23.1,10.8-47.3,17.2-72.8,19c-1.1,0.1-2.1,0.5-3.2,0.7
				c-8.9,0-17.9,0-26.8,0c-1.2-0.2-2.4-0.6-3.6-0.7c-8-1.1-16.1-1.6-24-3.2c-46.9-9.3-86.5-31.9-118.5-67.4
				c-26.6-29.5-43.8-64-50.9-103.2c-1.9-10.7-2.7-21.5-4-32.3C7.8,224.9,7.8,219.9,7.8,214.9z M412.8,222.3
				c-0.1-105.6-85.4-190.8-190.9-190.8C116.2,31.5,30.9,117,31.1,222.7c0.3,105.8,85.4,190.7,190.9,190.6
				C327.6,413.1,412.9,327.7,412.8,222.3z"/>
			<path class="st1" d="M253,269.9c2,1,3.7,1.9,5.5,2.7c10.4,4.4,15.5,12.5,16.3,23.3c0.8,10.8,1,21.7,1.3,32.6
				c0.2,5.9,0.1,11.7-0.2,17.6c-0.3,6.2,2.4,10.7,7.1,14.3c1.7,1.3,3.5,2.3,5,3.7c0.9,0.9,1.8,2.3,1.7,3.4c-0.1,0.8-1.6,1.8-2.7,2.2
				c-12.8,4.5-28.8-6.6-28.9-20.1c-0.1-13.1,0-26.2-0.1-39.3c-0.1-7.4-2.9-11.1-9.3-12.9c-0.1,0.2-0.4,0.4-0.4,0.6
				c0,18.1-0.1,36.3,0,54.4c0,6.9,1.1,13.6,5.5,19.3c1,1.3,1.4,3.2,2,4.9c-6.6,2.4-17.4-1.9-21.9-8.4c-3.9-5.7-6-12-6.1-18.8
				c-0.2-16.5-0.3-32.9-0.1-49.4c0.1-4.4-1.2-5.8-5.4-5.2c-1.6,0.2-3.3,0-5.5,0c0,1.8,0,3.3,0,4.8c0,15.1,0.2,30.1-0.1,45.2
				c-0.1,5.4-0.9,10.9-2.5,16c-3.1,10.4-11.2,16.2-22,16.7c-0.9,0-1.9-0.2-3.6-0.4c0.8-2,1.1-3.8,2.1-5.1c4-5.4,5.6-11.6,5.7-18.1
				c0.3-18.8,0.1-37.6,0.1-56.5c-5.8,1.2-8.9,4.9-9,11.6c-0.1,13.3,0,26.5-0.1,39.8c-0.1,14-14.6,24.8-28.2,21.1
				c-1.3-0.4-3.1-1.4-3.4-2.4c-0.2-1,0.9-3,2-3.6c10.5-5.5,12.6-14.5,11.8-25.4c-0.6-7-0.1-14.2-0.1-21.5c-13.3,3.2-25.6,2-37.4-3.2
				c-8.3-3.6-13.5-10.4-17.3-18.1c-5-10.1-12-18.3-20.8-25.3c-1.2-1-2.9-3.5-2.5-4.1c1-1.6,2.9-3.1,4.8-3.5
				c5.2-1.1,10.1,0.4,13.9,4.1c4.3,4.1,8.1,8.8,12.1,13.2c6.4,7,13.4,13.1,23,15.2c8.5,1.9,16.6,0.8,24.1-3.9c1-0.6,2.1-1.6,2.4-2.7
				c2.5-8.7,8.8-13.6,16.6-17c1.6-0.7,3.2-1.5,5.5-2.6c-7.7-1.1-14.7-1.9-21.6-3.2c-15.4-2.8-29.8-8.2-42.1-18.2
				c-11.7-9.5-18.7-21.9-21.4-36.8c-3.6-19.7-4.2-39.1,4.5-57.8c2.4-5.1,5.6-10,9-14.5c1.8-2.5,2.4-4.5,1.6-7.5
				c-3.9-14.9-1.2-29.2,3.5-43.7c11.5,0.3,22.3,2.7,32.2,8.4c4.7,2.7,9.1,5.9,13.8,8.6c1.6,0.9,4,1.4,5.7,1
				c27-6.5,54.1-6.6,81.3-0.8c1.9,0.4,4.4-0.3,6-1.4c12.2-8.3,25.2-14.2,40.1-15.6c3.6-0.3,5.3,0.3,6.4,4.2
				c3.7,12.8,5.3,25.6,2.4,38.8c-0.2,1.1,0.2,2.9,1,3.7c16.8,18.2,20.6,40.2,18.6,63.8c-1.2,14.5-4.4,28.3-13.4,40.3
				c-10.1,13.4-23.8,21.3-39.6,25.6C272.6,266.6,262.9,268,253,269.9z M222.7,175.2c-17.6-0.5-34.1-1-50.5-1.2
				c-3.8,0-7.9,0.6-11.4,1.9c-14.1,5.3-22.4,15.3-24.2,30.6c-1.7,14.5-0.6,28.2,10.4,39.3c9.3,9.3,21.2,12.8,33.7,15.1
				c18.1,3.4,36.4,3.1,54.6,2.3c12.6-0.5,25.3-2.1,37.6-4.9c24.3-5.4,35.8-22.2,34.6-46.9c-1.2-24.9-20.2-38.6-40-37.7
				C252.2,174.5,236.8,174.8,222.7,175.2z"/>
		</g>
		<path class="st1" d="M261.2,213.4c1.6-4.1,2.5-8.3,4.7-11.7c3.8-6.1,11.6-6.3,16.5-1.1c6.1,6.5,6.3,18.6,0.4,25.4
			c-5.1,5.9-13.3,5.5-17.3-1.2C263.5,221.5,262.6,217.5,261.2,213.4z"/>
		<path class="st1" d="M191,214.7c0,4.1-1.5,8.5-5,12.1c-4.7,4.7-11.5,4.4-15.8-0.7c-5.4-6.5-5.4-18.4-0.1-25
			c4.2-5.2,11-5.6,15.8-0.9C189.4,203.5,191.1,208.2,191,214.7z"/>
	</g>
</g>
<g>
	<path class="st1" d="M342.9,659.2c1.3-11,2.1-22.2,4.1-33.1c7.2-39.5,24.8-74.1,51.8-103.7c31.9-34.8,71-57.1,117.4-66.2
		c95.9-18.8,193.8,31.3,234.8,119.8c50.1,108.2,3.6,234.9-104.6,285.3c-23.1,10.8-47.3,17.2-72.8,19c-1.1,0.1-2.1,0.5-3.2,0.7
		c-8.9,0-17.9,0-26.8,0c-1.2-0.2-2.4-0.6-3.6-0.7c-8-1.1-16.1-1.6-24-3.2c-46.9-9.3-86.5-31.9-118.5-67.4
		c-26.6-29.5-43.8-64-50.9-103.2c-1.9-10.7-2.7-21.5-4-32.3C342.9,669.2,342.9,664.2,342.9,659.2z M747.9,666.7
		C747.7,561,662.5,475.9,557,475.9c-105.8,0-191.1,85.5-190.8,191.1c0.3,105.8,85.4,190.7,190.9,190.6
		C662.7,857.4,748,772.1,747.9,666.7z"/>
	<g id="XMLID_1_">
		<g id="XMLID_6_">
			<g id="XMLID_8_">
				<rect id="XMLID_10_" x="438.8" y="624.7" class="st1" width="50.6" height="163.4"/>
				<path id="XMLID_9_" class="st1" d="M463.9,603.3c16.5,0,29.9-13.5,29.9-30.2c0-16.7-13.4-30.2-29.9-30.2
					c-16.5,0-29.9,13.5-29.9,30.2C434,589.8,447.3,603.3,463.9,603.3z"/>
			</g>
			<path id="XMLID_7_" class="st1" d="M570.3,702.4c0-23,10.6-36.7,30.8-36.7c18.6,0,27.5,13.1,27.5,36.7c0,23.5,0,85.8,0,85.8H679
				c0,0,0-59.7,0-103.5c0-43.8-24.8-64.9-59.5-64.9c-34.7,0-49.3,27-49.3,27v-22h-48.5v163.4h48.5
				C570.3,788.2,570.3,727.6,570.3,702.4z"/>
		</g>
	</g>
</g>
</svg>
