<?xml version="1.0" encoding="utf-8"?>
<!-- Generator: Adobe Illustrator 23.0.1, SVG Export Plug-In . SVG Version: 6.00 Build 0)  -->
<svg version="1.1" id="Layer_1" xmlns="http://www.w3.org/2000/svg" xmlns:xlink="http://www.w3.org/1999/xlink" x="0px" y="0px"
	 viewBox="0 0 442 444" style="enable-background:new 0 0 442 444;" xml:space="preserve">
<style type="text/css">
	.st0{fill:#FFFFFF;}
	.st1{fill:#222221;}
</style>
<g>
	<path class="st0" d="M750.7,333.9c0-69.2,0-138.4,0-207.6c143.2,0,286.3,0,429.5,0c0,143.2,0,286.3,0,429.5
		c-67.3,0-134.5,0-201.8,0c1.1-0.2,2.1-0.6,3.2-0.7c25.4-1.7,49.6-8.2,72.8-19c108.2-50.3,154.7-177.1,104.6-285.3
		c-41-88.5-138.9-138.6-234.8-119.8c-46.4,9.1-85.6,31.4-117.4,66.2c-27.1,29.5-44.6,64.1-51.8,103.7
		C752.8,311.7,752,322.8,750.7,333.9z"/>
	<path d="M750.7,333.9c1.3-11,2.1-22.2,4.1-33.1c7.2-39.5,24.8-74.1,51.8-103.7c31.9-34.8,71-57.1,117.4-66.2
		c95.9-18.8,193.8,31.3,234.8,119.8c50.1,108.2,3.6,234.9-104.6,285.3c-23.1,10.8-47.3,17.2-72.8,19c-1.1,0.1-2.1,0.5-3.2,0.7
		c-8.9,0-17.9,0-26.8,0c-1.2-0.2-2.4-0.6-3.6-0.7c-8-1.1-16.1-1.6-24-3.2c-46.9-9.3-86.5-31.9-118.5-67.4
		c-26.6-29.5-43.8-64-50.9-103.2c-1.9-10.7-2.7-21.5-4-32.3C750.7,343.9,750.7,338.9,750.7,333.9z M1155.6,341.3
		c-0.1-105.6-85.4-190.8-190.9-190.8C859,150.5,773.7,236,774,341.7c0.3,105.8,85.4,190.7,190.9,190.6
		C1070.5,532.1,1155.8,446.7,1155.6,341.3z"/>
	<path class="st0" d="M750.7,348.9c1.3,10.8,2,21.6,4,32.3c7.1,39.2,24.2,73.7,50.9,103.2c32,35.4,71.5,58.1,118.5,67.4
		c7.9,1.6,16,2.1,24,3.2c1.2,0.2,2.4,0.5,3.6,0.7c-67,0-134,0-200.9,0C750.7,486.8,750.7,417.9,750.7,348.9z"/>
	<path class="st0" d="M1155.6,341.3c0.1,105.4-85.2,190.8-190.7,190.9c-105.6,0.1-190.7-84.8-190.9-190.6
		c-0.3-105.6,85-191.1,190.8-191.1C1070.3,150.5,1155.5,235.7,1155.6,341.3z M995.8,388.9c9.9-2,19.6-3.3,28.9-5.8
		c15.8-4.3,29.5-12.2,39.6-25.6c9-12,12.2-25.8,13.4-40.3c2-23.6-1.8-45.6-18.6-63.8c-0.8-0.8-1.2-2.6-1-3.7
		c2.9-13.2,1.3-26-2.4-38.8c-1.1-3.9-2.8-4.5-6.4-4.2c-14.9,1.4-27.9,7.3-40.1,15.6c-1.6,1.1-4.2,1.8-6,1.4
		c-27.2-5.7-54.2-5.6-81.3,0.8c-1.7,0.4-4.1-0.1-5.7-1c-4.7-2.7-9.1-5.9-13.8-8.6c-9.9-5.6-20.7-8-32.2-8.4
		c-4.7,14.4-7.4,28.8-3.5,43.7c0.8,3,0.2,5-1.6,7.5c-3.4,4.6-6.6,9.4-9,14.5c-8.7,18.6-8.2,38.1-4.5,57.8
		c2.7,14.8,9.7,27.2,21.4,36.8c12.3,10,26.7,15.3,42.1,18.2c6.9,1.3,13.8,2.1,21.6,3.2c-2.3,1.1-3.9,1.9-5.5,2.6
		c-7.8,3.4-14.1,8.3-16.6,17c-0.3,1-1.4,2-2.4,2.7c-7.5,4.7-15.6,5.8-24.1,3.9c-9.6-2.2-16.6-8.2-23-15.2c-4-4.4-7.8-9.1-12.1-13.2
		c-3.8-3.6-8.7-5.1-13.9-4.1c-1.8,0.4-3.7,1.9-4.8,3.5c-0.4,0.6,1.3,3.1,2.5,4.1c8.7,7,15.8,15.2,20.8,25.3
		c3.8,7.7,9,14.5,17.3,18.1c11.9,5.2,24.1,6.4,37.4,3.2c0,7.4-0.5,14.5,0.1,21.5c0.9,10.9-1.3,19.9-11.8,25.4
		c-1.1,0.6-2.2,2.6-2,3.6c0.3,1,2.1,2.1,3.4,2.4c13.6,3.7,28.1-7,28.2-21.1c0.1-13.3,0-26.5,0.1-39.8c0.1-6.7,3.2-10.4,9-11.6
		c0,18.8,0.2,37.7-0.1,56.5c-0.1,6.4-1.7,12.7-5.7,18.1c-1,1.3-1.3,3.1-2.1,5.1c1.7,0.2,2.6,0.5,3.6,0.4c10.8-0.5,18.9-6.3,22-16.7
		c1.5-5.1,2.3-10.6,2.5-16c0.3-15.1,0.1-30.1,0.1-45.2c0-1.5,0-3,0-4.8c2.2,0,3.9,0.2,5.5,0c4.1-0.6,5.5,0.8,5.4,5.2
		c-0.3,16.5-0.1,32.9,0.1,49.4c0.1,6.8,2.2,13.2,6.1,18.8c4.5,6.5,15.3,10.8,21.9,8.4c-0.7-1.6-1-3.5-2-4.9
		c-4.4-5.7-5.5-12.4-5.5-19.3c-0.1-18.1,0-36.3,0-54.4c0-0.2,0.3-0.4,0.4-0.6c6.5,1.8,9.3,5.5,9.3,12.9c0.1,13.1-0.1,26.2,0.1,39.3
		c0.1,13.5,16.1,24.5,28.9,20.1c1.1-0.4,2.6-1.4,2.7-2.2c0.1-1.1-0.8-2.5-1.7-3.4c-1.5-1.4-3.4-2.5-5-3.7c-4.7-3.6-7.4-8.1-7.1-14.3
		c0.3-5.8,0.4-11.7,0.2-17.6c-0.3-10.9-0.5-21.7-1.3-32.6c-0.8-10.8-5.9-19-16.3-23.3C999.5,390.9,997.8,389.9,995.8,388.9z"/>
	<path d="M995.8,388.9c2,1,3.7,1.9,5.5,2.7c10.4,4.4,15.5,12.5,16.3,23.3c0.8,10.8,1,21.7,1.3,32.6c0.2,5.9,0.1,11.7-0.2,17.6
		c-0.3,6.2,2.4,10.7,7.1,14.3c1.7,1.3,3.5,2.3,5,3.7c0.9,0.9,1.8,2.3,1.7,3.4c-0.1,0.8-1.6,1.8-2.7,2.2
		c-12.8,4.5-28.8-6.6-28.9-20.1c-0.1-13.1,0-26.2-0.1-39.3c-0.1-7.4-2.9-11.1-9.3-12.9c-0.1,0.2-0.4,0.4-0.4,0.6
		c0,18.1-0.1,36.3,0,54.4c0,6.9,1.1,13.6,5.5,19.3c1,1.3,1.4,3.2,2,4.9c-6.6,2.4-17.4-1.9-21.9-8.4c-3.9-5.7-6-12-6.1-18.8
		c-0.2-16.5-0.3-32.9-0.1-49.4c0.1-4.4-1.2-5.8-5.4-5.2c-1.6,0.2-3.3,0-5.5,0c0,1.8,0,3.3,0,4.8c0,15.1,0.2,30.1-0.1,45.2
		c-0.1,5.4-0.9,10.9-2.5,16c-3.1,10.4-11.2,16.2-22,16.7c-0.9,0-1.9-0.2-3.6-0.4c0.8-2,1.1-3.8,2.1-5.1c4-5.4,5.6-11.6,5.7-18.1
		c0.3-18.8,0.1-37.6,0.1-56.5c-5.8,1.2-8.9,4.9-9,11.6c-0.1,13.3,0,26.5-0.1,39.8c-0.1,14-14.6,24.8-28.2,21.1
		c-1.3-0.4-3.1-1.4-3.4-2.4c-0.2-1,0.9-3,2-3.6c10.5-5.5,12.6-14.5,11.8-25.4c-0.6-7-0.1-14.2-0.1-21.5c-13.3,3.2-25.6,2-37.4-3.2
		c-8.3-3.6-13.5-10.4-17.3-18.1c-5-10.1-12-18.3-20.8-25.3c-1.2-1-2.9-3.5-2.5-4.1c1-1.6,2.9-3.1,4.8-3.5c5.2-1.1,10.1,0.4,13.9,4.1
		c4.3,4.1,8.1,8.8,12.1,13.2c6.4,7,13.4,13.1,23,15.2c8.5,1.9,16.6,0.8,24.1-3.9c1-0.6,2.1-1.6,2.4-2.7c2.5-8.7,8.8-13.6,16.6-17
		c1.6-0.7,3.2-1.5,5.5-2.6c-7.7-1.1-14.7-1.9-21.6-3.2c-15.4-2.8-29.8-8.2-42.1-18.2c-11.7-9.5-18.7-21.9-21.4-36.8
		c-3.6-19.7-4.2-39.1,4.5-57.8c2.4-5.1,5.6-10,9-14.5c1.8-2.5,2.4-4.5,1.6-7.5c-3.9-14.9-1.2-29.2,3.5-43.7
		c11.5,0.3,22.3,2.7,32.2,8.4c4.7,2.7,9.1,5.9,13.8,8.6c1.6,0.9,4,1.4,5.7,1c27-6.5,54.1-6.6,81.3-0.8c1.9,0.4,4.4-0.3,6-1.4
		c12.2-8.3,25.2-14.2,40.1-15.6c3.6-0.3,5.3,0.3,6.4,4.2c3.7,12.8,5.3,25.6,2.4,38.8c-0.2,1.1,0.2,2.9,1,3.7
		c16.8,18.2,20.6,40.2,18.6,63.8c-1.2,14.5-4.4,28.3-13.4,40.3c-10.1,13.4-23.8,21.3-39.6,25.6C1015.4,385.6,1005.7,387,995.8,388.9
		z M965.6,294.2c-17.6-0.5-34.1-1-50.5-1.2c-3.8,0-7.9,0.6-11.4,1.9c-14.1,5.3-22.4,15.3-24.2,30.6c-1.7,14.5-0.6,28.2,10.4,39.3
		c9.3,9.3,21.2,12.8,33.7,15.1c18.1,3.4,36.4,3.1,54.6,2.3c12.6-0.5,25.3-2.1,37.6-4.9c24.3-5.4,35.8-22.2,34.6-46.9
		c-1.2-24.9-20.2-38.6-40-37.7C995,293.5,979.7,293.8,965.6,294.2z"/>
	<path class="st0" d="M965.6,294.2c14.1-0.4,29.5-0.7,44.8-1.4c19.7-0.9,38.7,12.8,40,37.7c1.2,24.7-10.4,41.5-34.6,46.9
		c-12.3,2.7-25,4.3-37.6,4.9c-18.2,0.8-36.5,1.1-54.6-2.3c-12.5-2.3-24.5-5.8-33.7-15.1c-10.9-11-12.1-24.7-10.4-39.3
		c1.8-15.3,10.1-25.3,24.2-30.6c3.6-1.3,7.6-2,11.4-1.9C931.5,293.2,947.9,293.7,965.6,294.2z M1001,332.4c1.5,4.1,2.3,8.1,4.3,11.5
		c4,6.8,12.1,7.1,17.3,1.2c5.9-6.9,5.8-18.9-0.4-25.4c-4.9-5.2-12.7-5-16.5,1.1C1003.5,324.1,1002.6,328.3,1001,332.4z M930.9,333.7
		c0.1-6.5-1.6-11.2-5-14.5c-4.8-4.6-11.6-4.3-15.8,0.9c-5.3,6.6-5.3,18.5,0.1,25c4.2,5.1,11.1,5.5,15.8,0.7
		C929.4,342.3,930.9,337.9,930.9,333.7z"/>
	<path d="M1001,332.4c1.6-4.1,2.5-8.3,4.7-11.7c3.8-6.1,11.6-6.3,16.5-1.1c6.1,6.5,6.3,18.6,0.4,25.4c-5.1,5.9-13.3,5.5-17.3-1.2
		C1003.3,340.5,1002.5,336.5,1001,332.4z"/>
	<path d="M930.9,333.7c0,4.1-1.5,8.5-5,12.1c-4.7,4.7-11.5,4.4-15.8-0.7c-5.4-6.5-5.4-18.4-0.1-25c4.2-5.2,11-5.6,15.8-0.9
		C929.2,322.5,930.9,327.2,930.9,333.7z"/>
</g>
<g>
	<path class="st1" d="M6.8,213.9c1.3-11,2.1-22.2,4.1-33.1c7.2-39.5,24.8-74.1,51.8-103.7c31.9-34.8,71-57.1,117.4-66.2
		C276-7.9,374,42.2,415,130.7C465.1,239,418.6,365.7,310.4,416c-23.1,10.8-47.3,17.2-72.8,19c-1.1,0.1-2.1,0.5-3.2,0.7
		c-8.9,0-17.9,0-26.8,0c-1.2-0.2-2.4-0.6-3.6-0.7c-8-1.1-16.1-1.6-24-3.2c-46.9-9.3-86.5-31.9-118.5-67.4
		c-26.6-29.5-43.8-64-50.9-103.2c-1.9-10.7-2.7-21.5-4-32.3C6.8,223.9,6.8,218.9,6.8,213.9z M411.7,221.3
		c-0.1-105.6-85.4-190.8-190.9-190.8C115.1,30.5,29.8,116,30.1,221.7c0.3,105.8,85.4,190.7,190.9,190.6
		C326.6,412.1,411.9,326.7,411.7,221.3z"/>
	<g id="XMLID_1_">
		<g id="XMLID_6_">
			<g id="XMLID_8_">
				<rect id="XMLID_10_" x="102.7" y="179.4" class="st1" width="50.6" height="163.4"/>
				<path id="XMLID_9_" class="st1" d="M127.7,158c16.5,0,29.9-13.5,29.9-30.2s-13.4-30.2-29.9-30.2c-16.5,0-29.9,13.5-29.9,30.2
					S111.2,158,127.7,158z"/>
			</g>
			<path id="XMLID_7_" class="st1" d="M234.2,257c0-23,10.6-36.7,30.8-36.7c18.6,0,27.5,13.1,27.5,36.7c0,23.5,0,85.8,0,85.8h50.4
				c0,0,0-59.7,0-103.5c0-43.8-24.8-64.9-59.5-64.9c-34.7,0-49.3,27-49.3,27v-22h-48.5v163.4h48.5
				C234.2,342.8,234.2,282.2,234.2,257z"/>
		</g>
	</g>
</g>
</svg>
